<svg width="76" height="45" viewBox="0 0 76 45" fill="none" xmlns="http://www.w3.org/2000/svg">
<path d="M53.2867 33.8335H61.2187V0L53.2867 1.69098V33.8335Z" fill="#606060"/>
<path d="M38.6335 9.60864C36.2126 9.60864 33.8461 10.3291 31.8333 11.6788C29.8204 13.0286 28.2515 14.9471 27.3251 17.1916C26.3987 19.4362 26.1563 21.9061 26.6286 24.2889C27.1009 26.6717 28.2666 28.8605 29.9784 30.5784C31.6902 32.2963 33.8712 33.4662 36.2456 33.9402C38.6199 34.4142 41.081 34.1709 43.3176 33.2412C45.5542 32.3115 47.4658 30.737 48.8108 28.717C50.1558 26.6969 50.8736 24.3219 50.8736 21.8924C50.8736 18.6346 49.584 15.5101 47.2886 13.2065C44.9931 10.9028 41.8798 9.60864 38.6335 9.60864ZM38.6335 25.872C37.8489 25.872 37.082 25.6385 36.4296 25.201C35.7773 24.7635 35.2689 24.1417 34.9687 23.4143C34.6685 22.6868 34.59 21.8863 34.7432 21.1141C34.8963 20.3419 35.2742 19.6326 35.8291 19.0759C36.384 18.5192 37.0909 18.1402 37.8604 17.9867C38.6299 17.8333 39.4275 17.9123 40.1523 18.2138C40.8771 18.5153 41.4965 19.0257 41.9322 19.6805C42.3679 20.3353 42.6004 21.1051 42.6001 21.8924C42.5998 22.948 42.1817 23.9602 41.4379 24.7065C40.694 25.4527 39.6853 25.872 38.6335 25.872Z" fill="#606060"/>
<path d="M38.6334 37.0397C37.8489 37.0397 37.082 37.2731 36.4297 37.7106C35.7774 38.148 35.269 38.7697 34.9688 39.4971C34.6685 40.2245 34.59 41.0249 34.743 41.7971C34.8961 42.5693 35.2739 43.2786 35.8286 43.8353C36.3833 44.392 37.0901 44.7711 37.8596 44.9247C38.629 45.0783 39.4266 44.9995 40.1514 44.6982C40.8762 44.3969 41.4957 43.8867 41.9316 43.2321C42.3674 42.5774 42.6001 41.8078 42.6001 41.0205C42.6001 39.9647 42.1821 38.9522 41.4383 38.2056C40.6944 37.4591 39.6854 37.0397 38.6334 37.0397Z" fill="#606060"/>
<path d="M17.5946 1.55917C15.9513 0.539644 14.0575 -0.000265067 12.1256 9.76254e-08H-0.213318V33.8335H13.6717C15.7367 33.832 17.7546 33.2146 19.4692 32.0597C21.1837 30.9049 22.5176 29.2646 23.3013 27.3474C24.085 25.4301 24.2832 23.3223 23.8707 21.2918C23.4582 19.2612 22.4536 17.3996 20.9845 15.9432C21.7032 14.7754 22.1855 13.4769 22.4041 12.122C22.6226 10.7671 22.5731 9.38224 22.2583 8.04653C21.9435 6.71082 21.3696 5.45043 20.5694 4.33732C19.7692 3.22421 18.7584 2.28019 17.5946 1.55917V1.55917ZM7.72994 7.96156H12.1369C12.7944 7.96156 13.4251 8.2237 13.89 8.69032C14.355 9.15694 14.6162 9.7898 14.6162 10.4497C14.6162 11.1096 14.355 11.7425 13.89 12.2091C13.4251 12.6757 12.7944 12.9378 12.1369 12.9378H7.72994V7.96156ZM13.6793 25.8732H7.72994V20.8969H13.6793C14.0094 20.8894 14.3378 20.9483 14.645 21.07C14.9522 21.1916 15.2321 21.3737 15.4683 21.6054C15.7044 21.8371 15.892 22.1138 16.0201 22.4193C16.1482 22.7248 16.2142 23.053 16.2142 23.3844C16.2142 23.7159 16.1482 24.044 16.0201 24.3495C15.892 24.655 15.7044 24.9317 15.4683 25.1634C15.2321 25.3952 14.9522 25.5772 14.645 25.6989C14.3378 25.8205 14.0094 25.8794 13.6793 25.8719V25.8732Z" fill="#606060"/>
<path d="M74.4395 27.5529C72.8534 27.5529 72.2479 26.1595 72.2479 24.2689V18.0222H76.2033V10.0618H72.2367V3.98083L64.3047 5.67182V26.2712C64.3047 31.1245 67.3069 33.9214 71.7413 34.1537C71.7851 34.1537 71.8401 34.165 71.8839 34.165H71.964C72.0628 34.165 72.1504 34.1763 72.2504 34.1763H72.3493C73.7007 34.1705 75.0297 33.8284 76.2171 33.1807V27.3207C75.6379 27.4791 75.0398 27.5572 74.4395 27.5529Z" fill="#606060"/>
</svg>
