<svg width="188" height="41" viewBox="0 0 188 41" fill="none" xmlns="http://www.w3.org/2000/svg">
<g clip-path="url(#clip0_1_70)">
<path d="M57.1125 5.63635H47.1941C46.8779 5.63635 46.6013 5.91476 46.6013 6.23294V28.7443C46.6013 29.0625 46.8779 29.3409 47.1941 29.3409H57.152C64.9761 29.3409 70.034 24.6875 70.034 17.4886C70.034 10.25 64.9761 5.63635 57.1125 5.63635ZM57.1125 23.0568H53.7141V11.8807H57.152C60.6689 11.8807 62.8027 13.9488 62.8027 17.4488C62.8027 20.2329 60.8664 23.0568 57.1125 23.0568Z" fill="#606060"/>
<path d="M114.054 11.7216C111.327 11.7216 109.075 13.2329 108.087 14.7443C107.376 12.7556 105.716 11.7216 103.187 11.7216C100.382 11.7216 98.2874 13.1534 97.5366 14.1079V12.7556C97.5366 12.4375 97.2599 12.159 96.9438 12.159H91.7673C91.4512 12.159 91.1746 12.4375 91.1746 12.7556V28.7045C91.1746 29.0227 91.4512 29.3011 91.7673 29.3011H96.9438C97.2599 29.3011 97.5366 29.0227 97.5366 28.7045V18.7215C97.8922 18.284 98.6825 17.3693 100.105 17.3693C101.37 17.3693 102.041 18.0454 102.041 19.2784V28.7045C102.041 29.0227 102.318 29.3011 102.634 29.3011H107.811C108.127 29.3011 108.403 29.0227 108.403 28.7045V18.7215C108.759 18.284 109.549 17.3693 111.011 17.3693C112.236 17.3693 112.948 18.0852 112.948 19.2784V28.7045C112.948 29.0227 113.224 29.3011 113.54 29.3011H118.717C119.033 29.3011 119.31 29.0227 119.31 28.7045V16.8522C119.349 13.5511 117.452 11.7216 114.054 11.7216Z" fill="#606060"/>
<path d="M127.687 12.1591H122.511C122.195 12.1591 121.918 12.4375 121.918 12.7556V28.7045C121.918 29.0227 122.195 29.3011 122.511 29.3011H127.687C128.003 29.3011 128.28 29.0227 128.28 28.7045V12.7556C128.28 12.4375 128.003 12.1591 127.687 12.1591Z" fill="#606060"/>
<path d="M125.237 3.72729C123.262 3.72729 121.681 5.31821 121.681 7.30684C121.681 9.29547 123.301 10.8864 125.237 10.8864C127.213 10.8864 128.794 9.29547 128.794 7.30684C128.833 5.35798 127.213 3.72729 125.237 3.72729Z" fill="#606060"/>
<path d="M143.177 11.7216C139.897 11.7216 138.079 13.1932 137.329 14.1079V12.7556C137.329 12.4375 137.052 12.159 136.736 12.159H131.559C131.243 12.159 130.967 12.4375 130.967 12.7556V28.7045C130.967 29.0227 131.243 29.3011 131.559 29.3011H136.736C137.052 29.3011 137.329 29.0227 137.329 28.7045V18.7215C137.724 18.2443 138.514 17.3693 140.055 17.3693C141.715 17.3693 142.545 18.2045 142.545 19.8352V28.7443C142.545 29.0625 142.821 29.3409 143.137 29.3409H148.314C148.63 29.3409 148.907 29.0625 148.907 28.7443V17.1704C148.867 13.75 146.733 11.7216 143.177 11.7216Z" fill="#606060"/>
<path d="M80.3079 11.6421C75.3289 11.6421 71.2983 15.6989 71.2983 20.7102C71.2983 25.7216 75.3289 29.7785 80.3079 29.7785C85.2868 29.7785 89.3174 25.7216 89.3174 20.7102C89.2778 15.6989 85.2473 11.6421 80.3079 11.6421ZM80.3079 23.6933C78.6087 23.6933 77.2256 22.3012 77.2256 20.591C77.2256 18.8807 78.6087 17.4887 80.3079 17.4887C82.007 17.4887 83.39 18.8807 83.39 20.591C83.3506 22.3012 82.007 23.6933 80.3079 23.6933Z" fill="#606060"/>
<path d="M159.734 11.6818C154.755 11.6818 150.724 15.7386 150.724 20.7499C150.724 25.7613 154.755 29.8181 159.734 29.8181C164.713 29.8181 168.744 25.7613 168.744 20.7499C168.744 15.7386 164.713 11.6818 159.734 11.6818ZM159.734 23.6931C158.035 23.6931 156.652 22.3011 156.652 20.5908C156.652 18.8806 158.035 17.4886 159.734 17.4886C161.433 17.4886 162.816 18.8806 162.816 20.5908C162.816 22.3011 161.433 23.6931 159.734 23.6931Z" fill="#606060"/>
<path d="M173.723 6.63067C173.723 6.5909 173.723 6.5909 173.723 6.63067C173.723 6.5909 173.723 6.5909 173.723 6.5909C173.327 4.80112 171.391 3.5284 169.494 3.92613C167.558 4.32385 166.294 6.11363 166.689 7.94317C167.005 9.45454 168.309 10.4886 169.85 10.5682C169.771 11.1648 169.218 11.7216 168.783 12C168.467 12.1591 168.665 12.4773 168.665 12.4773L169.06 13.0739C169.178 13.2727 169.336 13.392 169.534 13.2727C173.446 11.6023 174.118 8.22158 173.723 6.63067Z" fill="#606060"/>
<path d="M178.306 17.25C178.306 16.6136 179.097 16.3352 180.164 16.3352C182.218 16.3352 183.404 16.9318 184.708 17.8068C184.826 17.8864 185.024 17.9261 185.182 17.8864C185.34 17.8466 185.498 17.7273 185.577 17.6079L187.316 14.5454C187.474 14.267 187.395 13.9091 187.118 13.75C185.696 12.875 183.601 11.7614 179.927 11.7614C174.671 11.7614 171.865 14.267 172.34 17.8466C173.169 24.1307 182.89 21.9829 182.732 24.1307C182.693 24.6079 181.823 25.0057 180.361 25.0057C178.425 25.0057 176.252 24.0511 174.869 23.1761C174.75 23.0966 174.552 23.0568 174.394 23.0966C174.236 23.1363 174.118 23.2557 174.039 23.375L172.023 26.7556C171.865 27.0341 171.944 27.392 172.221 27.5511C174.157 28.8636 177.279 29.7387 180.006 29.7387C185.261 29.7387 188.304 27.4716 188.304 23.733C188.225 16.8125 178.346 18.9602 178.306 17.25Z" fill="#606060"/>
<path d="M39.2384 11.8824L28.1602 0.721294C27.7081 0.265738 27.0674 0 26.4269 0C25.7486 0 25.1457 0.265738 24.6936 0.721294L15.3864 10.0602L-0.0627919 25.625C-1.0425 26.6121 -1.0425 28.1685 -0.0627919 29.1555L10.9777 40.2787C11.4299 40.7342 12.0705 41 12.711 41C13.3893 41 13.9922 40.7342 14.4443 40.2787L28.2732 26.3463L39.163 15.375C40.1804 14.426 40.1804 12.8315 39.2384 11.8824Z" fill="white"/>
<path d="M38.4471 12.6416L27.3689 1.51848C26.8414 0.987003 25.9747 0.987003 25.4472 1.51848L13.5023 13.5527L26.5022 26.65L38.4471 14.6157C38.9746 14.0463 38.9746 13.2111 38.4471 12.6416ZM28.7254 15.8685C28.0848 16.5139 27.2935 16.8176 26.4645 16.8176C25.6356 16.8176 24.8443 16.5139 24.2037 15.8685C23.5632 15.2231 23.2617 14.4259 23.2617 13.5907C23.2617 12.7555 23.5632 11.9203 24.2037 11.3129C24.8443 10.6676 25.6356 10.3639 26.4645 10.3639C27.2935 10.3639 28.0848 10.6676 28.7254 11.3129C29.3659 11.9583 29.6674 12.7555 29.6674 13.5907C29.6674 14.4259 29.3283 15.2611 28.7254 15.8685Z" fill="#606060"/>
<path d="M0.766209 26.3842C0.238676 26.9157 0.238676 27.7889 0.766209 28.3204L11.8067 39.4815C12.0705 39.7472 12.4096 39.8991 12.7864 39.8991C13.1256 39.8991 13.5023 39.7472 13.7661 39.4815L25.711 27.4472L12.7111 14.35L0.766209 26.3842ZM10.3372 29.6111C9.69657 30.2185 8.9053 30.5602 8.07627 30.5602C7.24732 30.5602 6.41834 30.2565 5.81545 29.6111C5.17487 28.9657 4.87343 28.1685 4.87343 27.3333C4.87343 26.4981 5.17487 25.6629 5.81545 25.0555C6.45602 24.4102 7.24732 24.1065 8.07627 24.1065C8.9053 24.1065 9.73426 24.4102 10.3372 25.0555C10.9777 25.7009 11.2792 26.4981 11.2792 27.3333C11.2792 28.1685 10.94 28.9657 10.3372 29.6111ZM15.198 25.1694C15.8386 24.524 16.6299 24.2203 17.4589 24.2203C18.2878 24.2203 19.1168 24.524 19.7197 25.1694C20.3603 25.8148 20.6618 26.612 20.6618 27.4472C20.6618 28.2824 20.3603 29.0796 19.7197 29.725C19.0792 30.3703 18.2878 30.674 17.4589 30.674C16.6299 30.674 15.8386 30.3703 15.198 29.725C14.5574 29.0796 14.256 28.2824 14.256 27.4472C14.256 26.65 14.5574 25.8148 15.198 25.1694Z" fill="#606060"/>
</g>
<defs>
<clipPath id="clip0_1_70">
<rect width="188" height="41" fill="white"/>
</clipPath>
</defs>
</svg>
