<svg width="180" height="35" viewBox="0 0 180 35" fill="none" xmlns="http://www.w3.org/2000/svg">
<g clip-path="url(#clip0_1_67)">
<path d="M15.2997 0H5.82427L5.80613 0.0337156L4.49843 2.47156H15.2997C23.3006 2.47156 29.7907 9.11144 29.7907 17.3023C29.7907 25.4931 23.3026 32.133 15.2997 32.133C7.29676 32.133 0.807923 25.4924 0.807923 17.3023C0.807263 15.7529 1.04435 14.2131 1.51052 12.739H4.27723C2.31594 17.699 3.75073 23.3881 7.81257 26.7572C11.8744 30.1263 17.6102 30.3846 21.9456 27.3939C26.281 24.4031 28.1986 18.8649 26.6708 13.7478C25.1429 8.63056 20.5281 5.13522 15.2997 5.13509H3.07036L1.74517 7.60594H15.2997C19.5576 7.60688 23.2919 10.5149 24.4278 14.7145C25.5637 18.9141 23.8222 23.3734 20.1708 25.6149C16.5193 27.8564 11.8553 27.3293 8.76968 24.3266C5.68405 21.3238 4.93519 16.5831 6.93907 12.7383H10.0735C7.98131 15.2518 7.88012 18.9166 9.83025 21.5471C11.7804 24.1776 15.2564 25.0648 18.1852 23.6797C21.114 22.2946 22.7064 19.0104 22.0127 15.7858C21.3189 12.5611 18.5261 10.265 15.2997 10.2668H0.31711L-1.00876 12.739C-1.40563 14.2261 -1.60687 15.7608 -1.60715 17.3023C-1.60715 26.8576 5.96211 34.6046 15.2997 34.6046C24.6372 34.6046 32.2065 26.8576 32.2065 17.3023C32.2065 7.747 24.6365 0 15.2997 0ZM15.2997 12.739C17.7623 12.739 19.7587 14.7821 19.7587 17.3023C19.7587 19.8226 17.7623 21.8656 15.2997 21.8656C12.837 21.8656 10.8407 19.8226 10.8407 17.3023C10.8407 14.7821 12.837 12.739 15.2997 12.739ZM39.6379 17.6677C39.6379 12.8608 42.7892 9.48369 47.5151 9.48369C50.4284 9.48369 52.8065 10.7911 54.0551 12.9826L51.3206 14.9601C50.458 13.5599 49.1503 12.8911 47.6046 12.8911C45.0497 12.8911 43.3539 14.7489 43.3539 17.6677C43.3539 20.5576 45.0483 22.4436 47.6046 22.4436C49.151 22.4436 50.458 21.7438 51.3206 20.3443L54.0551 22.3218C52.8065 24.5429 50.4284 25.8206 47.5151 25.8206C42.7892 25.8206 39.6379 22.4436 39.6379 17.6677ZM54.5687 17.6677C54.5687 13.1649 57.6904 9.48369 62.5362 9.48369C67.4109 9.48369 70.5023 13.1649 70.5023 17.6677C70.5023 22.1401 67.4097 25.8206 62.5362 25.8206C57.6938 25.8206 54.5687 22.1394 54.5687 17.6677ZM66.7868 17.6677C66.7868 14.8383 65.1513 12.8608 62.5362 12.8608C59.9205 12.8608 58.2848 14.8383 58.2848 17.6677C58.2848 20.4661 59.9199 22.4436 62.5362 22.4436C65.1519 22.4436 66.7868 20.4661 66.7868 17.6677ZM94.308 9.90825L89.6684 25.3934H85.7513L82.4723 14.4716L79.1647 25.3934H75.2421L70.63 9.90825H74.2283L77.3619 21.0729L80.7275 9.90825H84.2098L87.5761 21.0729L90.6803 9.90825H94.308ZM145.268 9.90825L140.625 25.3934H136.707L133.428 14.4716L130.12 25.3934H126.206L121.592 9.91169H125.191L128.324 21.0764L131.687 9.90825H135.169L138.535 21.0729L141.64 9.90825H145.268ZM105.162 9.84906V13.317C104.611 13.2236 104.054 13.1728 103.497 13.1649C100.851 13.1649 99.4539 14.5342 99.4539 17.7585V25.3961H95.8293V9.90825H99.3928V12.4954C100.136 10.7009 101.771 9.63575 103.852 9.63575C104.297 9.62688 104.741 9.69913 105.162 9.84906ZM120.208 9.90825V23.8418C120.208 29.0443 117.384 31.9032 112.389 31.9032C109.803 31.9032 107.425 31.1126 105.998 29.7434L107.633 27.0358C108.91 28.0679 110.576 28.5874 112.181 28.5874C114.976 28.5874 116.641 26.9753 116.641 23.8397V22.5041C115.778 24.2078 113.936 25.242 111.705 25.242C108.495 25.242 106.474 23.1736 106.474 19.4009V9.90825H110.1V18.4583C110.1 20.8314 111.052 21.8656 112.954 21.8656C115.154 21.8656 116.611 20.497 116.611 18.2449V9.90825H120.208ZM146.222 5.01193C146.222 3.67294 147.143 2.69931 148.541 2.69931C149.907 2.69931 150.827 3.67294 150.827 5.01193C150.827 6.35094 149.905 7.32388 148.541 7.32388C147.143 7.32388 146.222 6.35025 146.222 5.01193ZM146.727 9.90963H150.354V25.3948H146.727V9.90963ZM152.179 22.8695L154.14 20.5266C155.329 21.8656 157.172 22.6562 159.105 22.6562C160.829 22.6562 161.78 21.9874 161.78 21.0138C161.78 20.1922 161.185 19.6754 159.67 19.3101L157.202 18.7321C154.051 17.9718 152.714 16.4808 152.714 14.3511C152.714 11.4915 155.032 9.48369 158.956 9.48369C161.632 9.48369 163.861 10.4264 165.169 11.9484L163.237 14.3511C161.929 13.1952 160.442 12.6475 158.867 12.6475C157.172 12.6475 156.339 13.2867 156.339 14.2301C156.339 14.9601 156.845 15.4163 158.45 15.7809L161.066 16.4202C164.246 17.1503 165.406 18.6406 165.406 20.7702C165.406 23.8431 163.087 25.8206 159.075 25.8206C156.073 25.8206 153.546 24.6647 152.179 22.8695ZM181.512 18.7624H170.245C170.631 21.2573 172.236 22.5956 174.704 22.5956C176.398 22.5956 177.824 21.9571 178.924 20.6484L181.095 22.8393C179.668 24.7253 177.379 25.8206 174.585 25.8206C169.768 25.8206 166.558 22.5956 166.558 17.7282C166.558 12.9213 169.651 9.48369 174.228 9.48369C178.627 9.48369 181.6 12.6172 181.6 17.3326C181.599 17.8106 181.57 18.2881 181.512 18.7624ZM170.245 16.2386H177.976C177.798 13.9562 176.43 12.7094 174.261 12.7094C172.029 12.7087 170.633 14.0168 170.245 16.2386Z" fill="#606060"/>
</g>
<defs>
<clipPath id="clip0_1_67">
<rect width="180" height="35" fill="white"/>
</clipPath>
</defs>
</svg>
