<svg width="132" height="25" viewBox="0 0 132 25" fill="none" xmlns="http://www.w3.org/2000/svg">
<path d="M16.2982 0.596558C16.6776 0.659699 16.9939 0.78598 17.3733 0.849121C22.6226 1.85938 26.2907 5.90043 26.9231 11.2674C27.5556 17.1396 23.8242 22.5697 18.1322 23.9588C17.1203 24.2114 16.1084 24.3377 15.0965 24.3377C10.3533 24.4008 5.67322 24.3377 0.929932 24.4008C0.929932 23.2011 0.929932 22.0646 0.929932 20.8649C2.13156 17.771 3.20671 17.0764 6.55863 17.0764C9.46784 17.0764 12.3138 17.0764 15.223 17.0764C17.6263 17.0764 19.5869 15.3085 19.7766 13.0354C19.9663 10.4466 18.3852 8.36294 15.982 7.98409C13.5787 7.60524 11.3652 9.12063 10.7327 11.4569C10.6695 11.7094 10.6062 11.962 10.543 12.2146C10.4165 12.1514 10.3533 12.1514 10.29 12.0883C8.58243 10.3835 6.87485 8.67864 5.16727 7.03697C4.85105 6.72126 4.97753 6.4687 5.16727 6.15299C6.8116 3.62734 9.08838 1.85938 11.9976 1.10169C12.63 0.912264 13.2625 0.785981 13.8949 0.659698C14.7803 0.596557 15.5393 0.596558 16.2982 0.596558Z" fill="black" fill-opacity="0.6"/>
<path d="M131.212 23.7659C129.821 24.6498 128.366 25.0287 126.722 24.713C124.255 24.271 122.801 22.3768 122.801 19.5354C122.801 14.3578 122.801 9.24337 122.801 4.06579C122.801 3.49752 122.801 2.8661 122.801 2.29783C122.801 2.10841 122.927 1.7927 123.117 1.72956C124.572 1.35071 126.026 0.971865 127.544 0.593018C127.544 1.03501 127.544 1.35071 127.544 1.66642C127.544 7.28599 127.544 12.9056 127.544 18.5251C127.544 18.8408 127.544 19.2197 127.607 19.5354C127.797 20.2931 128.24 20.6719 129.062 20.5457C129.505 20.4825 129.758 20.6088 129.884 20.9876C130.263 21.8085 130.706 22.6293 131.149 23.4502C131.212 23.5764 131.212 23.7027 131.212 23.7659Z" fill="black" fill-opacity="0.6"/>
<path d="M88.3329 0.592806C88.9021 0.719088 89.408 0.845371 89.9772 1.0348C93.0129 2.04506 94.9103 4.57071 94.9735 7.72777C95.0367 11.2637 93.3924 13.9156 90.3567 15.1153C90.1037 15.1784 89.914 15.3047 89.5345 15.431C91.5583 18.3986 93.5821 21.3031 95.6692 24.3971C94.9103 24.3971 94.4043 24.3971 93.8351 24.3971C92.6335 24.3971 91.4951 24.3971 90.2935 24.3971C89.7875 24.3971 89.4713 24.2076 89.1551 23.7657C87.574 21.3031 85.9929 18.8406 84.475 16.315C84.2221 15.873 83.9058 15.6836 83.3366 15.6836C82.8307 15.7467 82.2615 15.7467 81.6923 15.6836C81.1231 15.6204 80.8701 15.8099 80.8701 16.4413C80.9334 18.7775 80.8701 21.1137 80.8701 23.45C80.8701 24.0814 80.6804 24.3339 79.9847 24.3339C78.7831 24.2708 77.6447 24.3339 76.4431 24.3339C75.9371 24.3339 75.7474 24.2076 75.7474 23.7025C75.7474 16.8833 75.7474 10.064 75.7474 3.24474C75.7474 1.91877 76.5063 1.09793 77.6447 0.529663C81.3761 0.592804 84.8545 0.592806 88.3329 0.592806ZM84.3485 11.0111C85.2972 11.0111 86.1826 11.0111 87.1313 10.948C88.7124 10.8217 89.661 9.81143 89.7243 8.16976C89.7243 6.52809 88.7756 5.39154 87.1313 5.3284C85.2972 5.26526 83.3999 5.3284 81.5658 5.26526C81.1231 5.26526 80.9966 5.45468 80.9966 5.83353C80.9966 7.34892 80.9966 8.86431 80.9966 10.3797C80.9966 10.8848 81.1863 11.0111 81.6291 11.0111C82.5777 11.0111 83.4631 11.0111 84.3485 11.0111Z" fill="black" fill-opacity="0.6"/>
<path d="M103.828 24.8388C99.8432 24.8388 96.6178 22.7551 95.2897 19.4087C93.835 15.8096 94.7205 11.6423 97.3767 9.11664C101.741 5.01245 111.227 5.95957 112.871 13.5365C114.326 19.7875 110.089 24.902 103.828 24.8388ZM103.954 11.2003C101.298 11.2003 99.527 13.0314 99.527 15.8096C99.527 18.5247 101.298 20.4189 103.891 20.4189C106.484 20.4189 108.255 18.5878 108.255 15.8728C108.255 13.0945 106.547 11.2003 103.954 11.2003Z" fill="black" fill-opacity="0.6"/>
<path d="M119.386 2.6134C119.386 3.05539 119.449 3.3711 119.449 3.74995C119.449 8.67497 119.449 13.5368 119.449 18.4619C119.449 18.7776 119.449 19.1564 119.512 19.4721C119.575 20.3561 120.081 20.735 120.967 20.6087C121.409 20.5455 121.662 20.6718 121.789 21.0507C122.105 21.8084 122.484 22.566 122.927 23.2606C123.117 23.5763 123.054 23.8289 122.737 24.0183C120.967 24.9654 119.133 25.218 117.235 24.2709C115.717 23.5132 115.085 22.1872 114.832 20.6087C114.706 20.0404 114.706 19.409 114.706 18.7776C114.706 14.042 114.706 9.36952 114.706 4.63392C114.706 3.87623 114.958 3.62366 115.654 3.43424C116.793 3.24482 117.994 2.92911 119.386 2.6134Z" fill="black" fill-opacity="0.6"/>
<path d="M47.0347 0.592806C49.0585 5.77039 51.0823 11.0111 53.1693 16.1887C54.118 18.5881 55.0666 20.9874 56.0153 23.3868C56.1418 23.6394 56.205 23.9551 56.3315 24.3339C55.1931 24.3339 54.1812 24.3339 53.1061 24.3339C51.019 24.3339 51.019 24.3339 50.2601 22.3134C49.9439 21.4926 49.6277 20.7349 49.3747 19.914C49.2482 19.5352 48.9952 19.3458 48.5525 19.3458C45.5801 19.3458 42.6076 19.3458 39.5719 19.3458C39.1292 19.3458 38.9395 19.4721 38.7497 19.914C38.307 21.1769 37.8011 22.4397 37.3584 23.7025C37.1686 24.1445 36.9789 24.3971 36.4729 24.3339C34.9551 24.2708 33.4372 24.3339 31.7929 24.3339C31.9194 24.0182 31.9826 23.7657 32.0459 23.5131C34.7654 16.5044 37.5481 9.49573 40.2676 2.48704C40.647 1.53993 41.2795 0.971652 42.1016 0.529663C43.8092 0.592804 45.3903 0.592806 47.0347 0.592806ZM40.8368 14.6102C43.0503 14.6102 45.2006 14.6102 47.3509 14.6102C46.2757 11.7057 45.2006 8.86432 44.0622 5.83353C42.9238 8.86432 41.8487 11.7057 40.8368 14.6102Z" fill="black" fill-opacity="0.6"/>
<path d="M73.4705 0.593018C73.4705 0.845583 73.5338 1.09815 73.5338 1.35071C73.5338 8.73824 73.5338 16.1258 73.5338 23.5133C73.5338 24.271 73.3441 24.5236 72.5851 24.4604C71.6365 24.3973 70.7511 24.4604 69.8024 24.4604C69.3597 24.4604 69.17 24.3341 69.17 23.8921C69.17 23.387 69.0435 22.945 68.9802 22.4399C68.917 22.4399 68.8537 22.4399 68.7905 22.503C66.2607 25.8495 60.9483 25.6601 57.9126 22.5662C54.3077 18.8408 54.5606 12.0847 58.4185 8.73824C61.2645 6.27573 65.8813 6.14945 68.3478 8.54882C68.411 8.61196 68.4743 8.61196 68.6008 8.6751C68.6008 8.48568 68.664 8.29625 68.664 8.10683C68.664 6.78086 68.7273 5.4549 68.664 4.12893C68.6008 2.5504 69.1067 1.35071 70.6246 0.719301C71.6365 0.593018 72.5219 0.593018 73.4705 0.593018ZM60.3791 15.8732C60.3791 16.0626 60.3791 16.3152 60.4423 16.5678C60.6321 18.6514 62.2131 20.1668 64.3002 20.3562C66.4505 20.5457 68.2845 19.4091 68.8537 17.3886C69.0435 16.694 69.1067 15.8732 69.0435 15.1787C68.917 13.2844 67.7154 11.8322 65.9445 11.3902C62.8456 10.5693 60.3791 12.5267 60.3791 15.8732Z" fill="black" fill-opacity="0.6"/>
</svg>
