<svg width="122" height="50" viewBox="0 0 122 50" fill="none" xmlns="http://www.w3.org/2000/svg">
<g clip-path="url(#clip0_1_83)">
<path d="M60.7977 49.9999C94.6092 49.9999 122.016 38.8047 122.016 25.0041C122.016 11.1952 94.6092 0 60.7977 0C26.9863 0 -0.428894 11.1952 -0.428894 25.0041C-0.428894 38.8047 26.9863 49.9999 60.7977 49.9999Z" fill="#606060"/>
<path d="M76.1172 18.8364L77.7206 12.5021H56.8192L55.2244 18.8364H62.0656L58.7079 32.1459H65.9101L69.2677 18.8364H76.1172Z" fill="white"/>
<path d="M55.0226 12.5021H44.5972L37.9575 27.0601V12.5021H27.8594L21.5386 37.4979H28.4804L32.5937 21.3667V37.4979H37.9575L45.8563 21.3667L42.0705 37.4979H48.7019L55.0226 12.5021Z" fill="white"/>
<path d="M100.049 12.5021H93.4176L89.9508 25.8032L86.7861 12.5021H79.5168L73.2044 37.4979H79.8442L83.311 23.8971L86.7861 37.4979H93.7365L100.049 12.5021Z" fill="white"/>
<path d="M58.2545 33.927L57.348 37.4979H64.5585L65.4567 33.927H58.2545Z" fill="white"/>
</g>
<defs>
<clipPath id="clip0_1_83">
<rect width="122" height="50" fill="white"/>
</clipPath>
</defs>
</svg>
