<svg width="154" height="34" viewBox="0 0 154 34" fill="none" xmlns="http://www.w3.org/2000/svg">
<path fill-rule="evenodd" clip-rule="evenodd" d="M22.5241 22.9668H2.15867C1.70717 22.9668 1.27417 22.7871 0.954912 22.4674C0.635655 22.1477 0.456299 21.7141 0.456299 21.2619C0.456299 20.8098 0.635655 20.3762 0.954912 20.0565C1.27417 19.7367 1.70717 19.5571 2.15867 19.5571H22.5241C22.9756 19.5571 23.4086 19.7367 23.7279 20.0565C24.0471 20.3762 24.2265 20.8098 24.2265 21.2619C24.2265 21.7141 24.0471 22.1477 23.7279 22.4674C23.4086 22.7871 22.9756 22.9668 22.5241 22.9668Z" fill="black" fill-opacity="0.6"/>
<path fill-rule="evenodd" clip-rule="evenodd" d="M18.1735 33.3851C16.5309 33.3802 14.8969 33.1464 13.3186 32.6905C13.1033 32.6242 12.9032 32.516 12.7297 32.3723C12.5561 32.2285 12.4126 32.0519 12.3072 31.8525C12.0943 31.4499 12.0499 30.9791 12.1837 30.5437C12.3175 30.1083 12.6185 29.744 13.0205 29.5308C13.4225 29.3177 13.8927 29.2732 14.3274 29.4072C15.5746 29.7851 16.8706 29.9766 18.1735 29.9755C20.9633 29.9634 23.6755 29.0552 25.9114 27.3844C28.1473 25.7136 29.7888 23.3684 30.5945 20.6937C30.7366 20.264 31.0389 19.9059 31.4384 19.6941C31.8378 19.4823 32.3036 19.4333 32.7383 19.5571C33.1673 19.6994 33.5249 20.0022 33.7364 20.4022C33.9479 20.8022 33.9969 21.2686 33.8732 21.704C32.8642 25.0861 30.7903 28.0509 27.9609 30.1561C25.1315 32.2612 21.6983 33.3939 18.1735 33.3851Z" fill="black" fill-opacity="0.6"/>
<path fill-rule="evenodd" clip-rule="evenodd" d="M34.1885 14.3163H13.823C13.3715 14.3163 12.9385 14.1366 12.6193 13.8169C12.3 13.4972 12.1207 13.0636 12.1207 12.6114C12.1207 12.1593 12.3 11.7257 12.6193 11.406C12.9385 11.0862 13.3715 10.9066 13.823 10.9066H34.1885C34.4123 10.9058 34.634 10.9493 34.8409 11.0347C35.0478 11.1201 35.2358 11.2456 35.3941 11.4041C35.5523 11.5626 35.6777 11.7508 35.763 11.9581C35.8482 12.1653 35.8917 12.3873 35.8908 12.6114C35.8828 13.0611 35.7008 13.49 35.3833 13.808C35.0658 14.1259 34.6374 14.3082 34.1885 14.3163Z" fill="black" fill-opacity="0.6"/>
<path fill-rule="evenodd" clip-rule="evenodd" d="M57.3282 16.211L54.5539 15.6427C53.1668 15.327 52.4102 14.5061 52.4102 13.2433C52.4102 11.6017 53.7973 10.4651 55.7519 10.4651C56.5448 10.4324 57.3263 10.662 57.9759 11.1185C58.6254 11.575 59.1069 12.2329 59.3458 12.9908C59.3715 13.0882 59.4189 13.1786 59.4844 13.2551C59.5499 13.3316 59.6319 13.3924 59.7241 13.4327C59.9085 13.4848 60.1002 13.5062 60.2915 13.4959L61.7417 12.9908C61.83 12.9637 61.9118 12.919 61.9823 12.8593C62.0528 12.7997 62.1105 12.7263 62.1517 12.6436C62.193 12.5609 62.2171 12.4707 62.2225 12.3784C62.2278 12.2861 62.2144 12.1937 62.1831 12.1068C61.8048 10.7808 60.4176 7.68689 55.7519 7.68689C52.2841 7.68689 49.3207 10.3388 49.3207 13.4959C49.3207 16.211 51.0861 18.2315 54.0495 18.8629L56.6976 19.4312C58.337 19.7469 59.2197 20.7571 59.2197 22.02C59.2197 23.6616 57.8326 24.6719 55.6888 24.6719C54.7242 24.7159 53.7764 24.4071 53.0224 23.803C52.2683 23.1988 51.7594 22.3407 51.5905 21.3885C51.5553 21.2053 51.4497 21.0432 51.2965 20.9369C51.1432 20.8307 50.9546 20.7888 50.7709 20.8203C50.7078 20.8203 50.7078 20.8203 50.7078 20.8834L49.0685 21.3885C48.903 21.4465 48.7626 21.5598 48.6707 21.7093C48.5789 21.8588 48.5412 22.0354 48.5641 22.2094C49.0685 24.8613 51.2122 27.6395 55.7519 27.6395C59.598 27.6395 62.4353 25.1139 62.4353 21.8305C62.4353 18.926 60.6068 16.9055 57.3282 16.211ZM73.8475 18.7366C73.8475 18.7998 73.8475 18.7998 73.7844 18.8629C73.7214 18.926 73.7214 18.926 73.6583 18.926H67.7315C67.6685 18.926 67.6685 18.8629 67.6054 18.8629C67.5424 18.8629 67.5424 18.7998 67.5424 18.7366C67.6813 18.0255 68.0685 17.3872 68.6346 16.936C69.2007 16.4848 69.9087 16.2501 70.6319 16.2741C72.3973 16.2741 73.5953 17.2212 73.8475 18.7366ZM70.6319 13.4959C67.5424 13.4959 64.3268 16.0847 64.3268 20.4414C64.2917 21.3967 64.4526 22.3491 64.7996 23.2397C65.1467 24.1302 65.6724 24.94 66.3444 25.619C66.9492 26.2228 67.6671 26.701 68.457 27.0261C69.2469 27.3512 70.0931 27.5167 70.9471 27.5132C72.1783 27.5604 73.3944 27.2286 74.4315 26.5626C75.4686 25.8965 76.277 24.9281 76.7478 23.7879C76.8112 23.6038 76.8112 23.4037 76.7478 23.2196C76.7075 23.1273 76.6468 23.0452 76.5704 22.9796C76.494 22.914 76.4038 22.8666 76.3064 22.8408L74.9824 22.3988C74.8144 22.3447 74.6325 22.3532 74.4702 22.4228C74.308 22.4924 74.1764 22.6185 74.0997 22.7777C73.8587 23.4075 73.4226 23.9435 72.8552 24.3071C72.2879 24.6707 71.6192 24.8428 70.9471 24.7982C70.087 24.8119 69.2531 24.5015 68.6108 23.9284C67.9684 23.3554 67.5646 22.5615 67.4793 21.7043C67.4793 21.6411 67.4793 21.6411 67.5424 21.578C67.5764 21.5437 67.6207 21.5215 67.6685 21.5148H76.3064C76.4899 21.5132 76.6653 21.4395 76.7951 21.3096C76.9248 21.1797 76.9984 21.004 77 20.8203V20.4414C77 16.1478 74.541 13.4959 70.6319 13.4959ZM85.3227 23.8511C83.242 23.8511 81.981 22.3988 81.981 20.1257C81.981 17.8526 83.3051 16.4004 85.3227 16.4004C87.3404 16.4004 88.6644 17.9158 88.6644 20.1257C88.6644 22.3357 87.2773 23.8511 85.3227 23.8511ZM90.8081 13.9379H89.2319C89.1361 13.9402 89.0417 13.9619 88.9545 14.0016C88.8673 14.0414 88.789 14.0983 88.7242 14.169C88.6595 14.2398 88.6096 14.3229 88.5777 14.4133C88.5457 14.5038 88.5324 14.5998 88.5383 14.6956C88.5317 14.7434 88.5095 14.7878 88.4753 14.8219C88.4122 14.8219 88.4122 14.885 88.3492 14.8219C87.4066 14.0554 86.2212 13.6522 85.0075 13.6853C81.4766 13.6853 78.9546 16.4004 78.9546 20.1257C78.9546 23.8511 81.4766 26.5661 85.0075 26.5661C86.2317 26.5968 87.4233 26.169 88.3492 25.3664C88.3819 25.3304 88.4269 25.3079 88.4753 25.3033C88.5383 25.3033 88.5383 25.3664 88.5383 25.4296V25.9979C88.5383 28.5866 87.4034 29.7863 84.9444 29.7863C84.231 29.8093 83.532 29.5822 82.9679 29.1442C82.4039 28.7061 82.0102 28.0846 81.8549 27.387C81.7873 27.2162 81.6791 27.0645 81.5397 26.945C81.458 26.8875 81.3632 26.8515 81.264 26.8405C81.1648 26.8294 81.0645 26.8437 80.9722 26.8818L79.459 27.1975C79.267 27.2399 79.0995 27.3566 78.9931 27.5223C78.8868 27.6879 78.8503 27.889 78.8915 28.0815C79.459 30.7335 81.8549 32.5646 84.9444 32.5646C87.2143 32.5646 88.9797 31.87 90.1146 30.4809C91.1147 29.1823 91.6279 27.5734 91.5648 25.9347V14.6324C91.5624 14.5365 91.5407 14.442 91.5011 14.3547C91.4614 14.2673 91.4046 14.1889 91.3339 14.124C91.2633 14.0592 91.1803 14.0093 91.09 13.9773C90.9996 13.9453 90.9038 13.9319 90.8081 13.9379ZM109.408 13.559C108.623 13.5172 107.839 13.6679 107.125 13.9979C106.411 14.328 105.788 14.8276 105.31 15.4533C105.247 15.5164 105.247 15.5164 105.184 15.5164C105.167 15.5164 105.151 15.5098 105.139 15.4979C105.127 15.4861 105.121 15.47 105.121 15.4533C104.712 14.8472 104.156 14.3553 103.506 14.0239C102.855 13.6925 102.13 13.5325 101.401 13.559C100.197 13.5392 99.0292 13.9666 98.1221 14.7587C98.0971 14.7826 98.0673 14.8006 98.0345 14.8115C98.0018 14.8225 97.9671 14.826 97.9329 14.8219C97.8698 14.7587 97.8699 14.7587 97.8699 14.6956C97.8798 14.6019 97.8687 14.5072 97.8373 14.4184C97.806 14.3297 97.7552 14.249 97.6887 14.1824C97.6222 14.1158 97.5417 14.065 97.453 14.0336C97.3643 14.0022 97.2698 13.9911 97.1763 14.001H95.6C95.4166 14.0027 95.2411 14.0764 95.1114 14.2063C94.9817 14.3362 94.9081 14.5119 94.9065 14.6956V26.4398C94.8965 26.5335 94.9076 26.6282 94.939 26.717C94.9703 26.8058 95.0211 26.8864 95.0876 26.953C95.1541 27.0196 95.2346 27.0704 95.3233 27.1018C95.412 27.1332 95.5065 27.1443 95.6 27.1344H97.1763C97.3597 27.1328 97.5352 27.059 97.6649 26.9292C97.7946 26.7993 97.8682 26.6235 97.8699 26.4398V19.2417C97.8699 17.4738 98.9417 16.3372 100.518 16.3372C102.599 16.3372 102.914 17.9789 102.914 18.926V26.4398C102.904 26.5335 102.915 26.6282 102.946 26.717C102.978 26.8058 103.029 26.8864 103.095 26.953C103.162 27.0196 103.242 27.0704 103.331 27.1018C103.419 27.1332 103.514 27.1443 103.607 27.1344H105.184C105.367 27.1328 105.543 27.059 105.672 26.9292C105.802 26.7993 105.876 26.6235 105.877 26.4398V19.1786C105.877 17.4738 106.949 16.2741 108.525 16.2741C110.606 16.2741 110.921 17.9158 110.921 18.8629V26.3767C110.911 26.4704 110.923 26.565 110.954 26.6538C110.985 26.7426 111.036 26.8233 111.103 26.8899C111.169 26.9564 111.25 27.0073 111.338 27.0387C111.427 27.0701 111.521 27.0812 111.615 27.0713H113.191C113.285 27.0812 113.379 27.0701 113.468 27.0387C113.557 27.0073 113.637 26.9564 113.704 26.8899C113.77 26.8233 113.821 26.7426 113.852 26.6538C113.884 26.565 113.895 26.4704 113.885 26.3767V18.6103C114.011 15.1376 111.678 13.559 109.408 13.559ZM119.938 18.926C119.875 18.926 119.875 18.8629 119.812 18.8629C119.748 18.8629 119.748 18.7998 119.748 18.7366C119.887 18.0255 120.275 17.3872 120.841 16.936C121.407 16.4848 122.115 16.2501 122.838 16.2741C124.54 16.2741 125.738 17.2212 125.991 18.7366C125.991 18.7998 125.991 18.7998 125.927 18.8629C125.864 18.926 125.864 18.926 125.801 18.926H119.938ZM122.838 13.559C119.748 13.559 116.533 16.1478 116.533 20.5046C116.498 21.4599 116.659 22.4123 117.006 23.3028C117.353 24.1934 117.879 25.0032 118.551 25.6822C119.159 26.2771 119.879 26.7454 120.669 27.0597C121.459 27.374 122.303 27.5282 123.153 27.5132C124.383 27.5515 125.595 27.216 126.63 26.5511C127.666 25.8861 128.476 24.9228 128.954 23.7879C129.017 23.6038 129.017 23.4037 128.954 23.2196C128.914 23.1273 128.853 23.0452 128.777 22.9796C128.7 22.914 128.61 22.8666 128.513 22.8408L127.188 22.3988C127.021 22.3373 126.836 22.3423 126.672 22.4127C126.508 22.4831 126.377 22.6137 126.306 22.7777C126.065 23.4075 125.629 23.9435 125.061 24.3071C124.494 24.6707 123.825 24.8428 123.153 24.7982C122.293 24.8119 121.459 24.5015 120.817 23.9284C120.175 23.3554 119.771 22.5615 119.685 21.7043C119.685 21.6411 119.685 21.6411 119.748 21.578C119.783 21.5437 119.827 21.5215 119.875 21.5148H128.513C128.696 21.5132 128.871 21.4395 129.001 21.3096C129.131 21.1797 129.204 21.004 129.206 20.8203V20.4414C129.143 16.1478 126.747 13.4959 122.838 13.559ZM138.475 13.559C137.857 13.5421 137.242 13.6508 136.668 13.8788C136.094 14.1067 135.571 14.449 135.133 14.885C135.07 14.9481 135.07 14.9481 134.944 14.9481C134.818 14.9481 134.881 14.885 134.881 14.8219V14.7587C134.891 14.6651 134.88 14.5704 134.848 14.4816C134.817 14.3928 134.766 14.3122 134.7 14.2456C134.633 14.179 134.553 14.1281 134.464 14.0967C134.375 14.0653 134.281 14.0542 134.187 14.0642H132.674C132.58 14.0542 132.486 14.0653 132.397 14.0967C132.309 14.1281 132.228 14.179 132.162 14.2456C132.095 14.3122 132.044 14.3928 132.013 14.4816C131.982 14.5704 131.97 14.6651 131.98 14.7587V26.503C131.97 26.5966 131.982 26.6913 132.013 26.7801C132.044 26.8689 132.095 26.9495 132.162 27.0161C132.228 27.0827 132.309 27.1336 132.397 27.165C132.486 27.1964 132.58 27.2075 132.674 27.1975H134.25C134.344 27.2075 134.438 27.1964 134.527 27.165C134.616 27.1336 134.696 27.0827 134.763 27.0161C134.829 26.9495 134.88 26.8689 134.911 26.7801C134.943 26.6913 134.954 26.5966 134.944 26.503V19.5575C134.944 18.0421 135.637 16.3372 137.592 16.3372C139.357 16.3372 140.24 17.2844 140.24 19.2417V26.3767C140.23 26.4704 140.241 26.565 140.273 26.6538C140.304 26.7426 140.355 26.8233 140.421 26.8899C140.488 26.9564 140.568 27.0073 140.657 27.0387C140.746 27.0701 140.84 27.0812 140.934 27.0713H142.51C142.603 27.0812 142.698 27.0701 142.787 27.0387C142.875 27.0073 142.956 26.9564 143.022 26.8899C143.089 26.8233 143.14 26.7426 143.171 26.6538C143.202 26.565 143.213 26.4704 143.203 26.3767V18.8629C143.266 15.5796 141.438 13.559 138.475 13.559ZM150.643 16.7161H152.535C152.628 16.726 152.723 16.7149 152.812 16.6835C152.9 16.6521 152.981 16.6013 153.047 16.5347C153.114 16.4681 153.165 16.3875 153.196 16.2987C153.227 16.2099 153.238 16.1152 153.228 16.0215V14.6324C153.238 14.5388 153.227 14.4441 153.196 14.3553C153.165 14.2665 153.114 14.1859 153.047 14.1193C152.981 14.0527 152.9 14.0018 152.812 13.9705C152.723 13.9391 152.628 13.9279 152.535 13.9379H150.643C150.58 13.9379 150.454 13.8747 150.454 13.8116V10.7177C150.464 10.624 150.453 10.5293 150.422 10.4405C150.39 10.3518 150.34 10.2711 150.273 10.2045C150.207 10.1379 150.126 10.0871 150.037 10.0557C149.949 10.0243 149.854 10.0132 149.761 10.0231H148.374C148.28 10.0132 148.186 10.0243 148.097 10.0557C148.008 10.0871 147.928 10.1379 147.861 10.2045C147.795 10.2711 147.744 10.3518 147.713 10.4405C147.681 10.5293 147.67 10.624 147.68 10.7177V12.3593C147.705 12.581 147.68 12.8056 147.607 13.0162C147.533 13.2268 147.413 13.4181 147.255 13.5759C147.098 13.7336 146.907 13.8538 146.697 13.9274C146.486 14.001 146.262 14.0262 146.041 14.001H145.788C145.695 13.9911 145.6 14.0022 145.512 14.0336C145.423 14.065 145.343 14.1158 145.276 14.1824C145.21 14.249 145.159 14.3297 145.127 14.4184C145.096 14.5072 145.085 14.6019 145.095 14.6956V16.0847C145.085 16.1783 145.096 16.273 145.127 16.3618C145.159 16.4506 145.21 16.5312 145.276 16.5978C145.343 16.6644 145.423 16.7153 145.512 16.7467C145.6 16.778 145.695 16.7892 145.788 16.7792H147.302C147.365 16.7792 147.491 16.8424 147.491 16.9055V23.4091C147.491 25.8084 148.941 27.2607 151.337 27.2607C151.803 27.2691 152.268 27.2268 152.724 27.1344C152.882 27.0971 153.023 27.0088 153.125 26.8833C153.228 26.7578 153.286 26.6019 153.292 26.4398V25.177C153.301 25.0834 153.29 24.9887 153.259 24.8999C153.228 24.8111 153.177 24.7305 153.11 24.6639C153.044 24.5973 152.963 24.5464 152.875 24.515C152.786 24.4837 152.691 24.4725 152.598 24.4825H152.535C152.346 24.4825 152.22 24.5456 152.094 24.5456C151.022 24.5456 150.58 24.1668 150.58 23.0934V16.9055C150.454 16.7792 150.58 16.7161 150.643 16.7161Z" fill="black" fill-opacity="0.6"/>
<path fill-rule="evenodd" clip-rule="evenodd" d="M4.11321 14.3165C3.88942 14.3173 3.66767 14.2738 3.46076 14.1884C3.25384 14.103 3.06584 13.9775 2.90759 13.819C2.74935 13.6605 2.62398 13.4723 2.53873 13.2651C2.45347 13.0578 2.41001 12.8358 2.41084 12.6117C2.41084 12.4222 2.47389 12.296 2.47389 12.1065C3.5013 8.74039 5.58186 5.79407 8.40863 3.70221C11.2354 1.61035 14.6587 0.483727 18.1735 0.488541C19.8162 0.493476 21.4501 0.727233 23.0285 1.18309C23.453 1.33183 23.8058 1.63562 24.0162 2.03368C24.2266 2.43174 24.2792 2.89469 24.1634 3.3299C24.0149 3.75503 23.7115 4.10831 23.314 4.31905C22.9165 4.52978 22.4542 4.58242 22.0196 4.46644C20.7725 4.08854 19.4765 3.89705 18.1735 3.89817C15.3851 3.87877 12.6659 4.76736 10.4256 6.43007C8.18533 8.09277 6.54527 10.4395 5.75253 13.1168C5.63579 13.4614 5.41571 13.7615 5.12232 13.9763C4.82893 14.191 4.47653 14.3098 4.11321 14.3165Z" fill="black" fill-opacity="0.6"/>
<path fill-rule="evenodd" clip-rule="evenodd" d="M29.9641 6.10801C29.9641 6.44519 29.8642 6.7748 29.6772 7.05516C29.4901 7.33551 29.2242 7.55402 28.9132 7.68306C28.6021 7.81209 28.2598 7.84585 27.9296 7.78007C27.5994 7.71429 27.296 7.55192 27.0579 7.3135C26.8199 7.07508 26.6577 6.77131 26.592 6.44061C26.5263 6.1099 26.5601 5.76712 26.6889 5.45561C26.8178 5.14409 27.036 4.87784 27.3159 4.69051C27.5959 4.50318 27.925 4.4032 28.2617 4.4032C28.7107 4.4113 29.139 4.59352 29.4565 4.91149C29.774 5.22947 29.956 5.6584 29.9641 6.10801ZM9.7878 27.7655C9.7878 28.1027 9.68796 28.4323 9.5009 28.7126C9.31384 28.993 9.04797 29.2115 8.7369 29.3405C8.42583 29.4696 8.08354 29.5033 7.75331 29.4375C7.42309 29.3718 7.11975 29.2094 6.88167 28.971C6.64359 28.7325 6.48145 28.4288 6.41577 28.0981C6.35008 27.7674 6.38379 27.4246 6.51264 27.1131C6.64149 26.8016 6.85969 26.5353 7.13964 26.348C7.4196 26.1607 7.74873 26.0607 8.08543 26.0607C8.30922 26.0598 8.53097 26.1034 8.73788 26.1887C8.9448 26.2741 9.1328 26.3997 9.29105 26.5581C9.44929 26.7166 9.57466 26.9049 9.65991 27.1121C9.74517 27.3193 9.78864 27.5414 9.7878 27.7655Z" fill="black" fill-opacity="0.6"/>
</svg>
