<svg width="134" height="26" viewBox="0 0 134 26" fill="none" xmlns="http://www.w3.org/2000/svg">
<g clip-path="url(#clip0_1_89)">
<path d="M35.8575 21.085V26H32.839V9.99961H35.8575V10.7651C36.7565 10.1682 37.8039 9.84615 38.8761 9.83691C42.3039 9.83691 44.8244 12.6198 44.8244 15.9353C44.8244 19.2508 42.3274 22.0337 38.8761 22.0337C37.7993 22.0356 36.747 21.7048 35.8575 21.085ZM35.8575 14.4762V17.3054C36.0957 17.8231 36.4657 18.266 36.9289 18.5875C37.3922 18.9091 37.9315 19.0976 38.4906 19.1333C39.0496 19.1689 39.6078 19.0505 40.1066 18.7903C40.6054 18.5301 41.0265 18.1377 41.3259 17.6543C41.6253 17.1708 41.7919 16.6141 41.8083 16.0423C41.8247 15.4705 41.6902 14.9048 41.419 14.4043C41.1478 13.9038 40.7499 13.487 40.2668 13.1974C39.7837 12.9079 39.2333 12.7563 38.6732 12.7585C38.0941 12.7502 37.5241 12.9064 37.0269 13.2097C36.5297 13.513 36.1248 13.9515 35.8575 14.4762Z" fill="#606060"/>
<path d="M46.4594 6.77499C46.4495 6.54165 46.4865 6.30871 46.568 6.0905C46.6496 5.8723 46.774 5.67343 46.9336 5.50613C47.0931 5.33882 47.2846 5.20663 47.496 5.11766C47.7075 5.02869 47.9345 4.98484 48.1632 4.98879C48.395 4.98468 48.6253 5.02791 48.8406 5.11594C49.0558 5.20397 49.2517 5.33503 49.4166 5.50142C49.5816 5.66781 49.7123 5.86618 49.8012 6.08488C49.8901 6.30358 49.9353 6.53821 49.9341 6.77499C49.9292 7.25119 49.7405 7.70618 49.4088 8.04099C49.0772 8.37581 48.6295 8.56337 48.1632 8.56289C47.9358 8.56182 47.7108 8.51448 47.5015 8.42365C47.2922 8.33282 47.1027 8.20031 46.9441 8.03387C46.7855 7.86742 46.6609 7.67038 46.5777 7.45423C46.4945 7.23809 46.4543 7.00718 46.4594 6.77499ZM46.6422 9.99973H49.7077V21.8489H46.6422V9.99973Z" fill="#606060"/>
<path d="M51.5223 15.8909C51.5161 15.0933 51.6662 14.3026 51.9636 13.5652C52.261 12.8277 52.6998 12.1585 53.2541 11.5967C53.8085 11.0349 54.4672 10.5919 55.1915 10.2939C55.9159 9.99579 56.6913 9.8486 57.4722 9.86095C58.5399 9.8615 59.5908 10.1322 60.531 10.6487V9.99966H63.5295V21.1758C63.5295 24.2584 60.9167 25.9298 57.6483 25.9298C55.5135 25.9298 53.4693 25.2808 52.1293 24.2173L53.3787 22.0149C54.6521 22.848 56.1361 23.2832 57.6483 23.2668C59.7596 23.2668 60.4187 22.4105 60.5092 21.0182C59.5998 21.6123 58.5451 21.9334 57.4655 21.9447C53.9908 21.9413 51.5223 19.2988 51.5223 15.8909ZM60.531 17.2112V14.5688C60.2774 14.0174 59.8762 13.5505 59.3739 13.2221C58.8715 12.8936 58.2884 12.7169 57.6919 12.7124C57.28 12.7083 56.8714 12.7874 56.4895 12.9451C56.1076 13.1029 55.7601 13.3362 55.4668 13.6315C55.1735 13.9269 54.9402 14.2786 54.7805 14.6663C54.6207 15.054 54.5376 15.4702 54.5358 15.8909C54.5358 17.7216 55.8975 18.9974 57.6701 18.9974C58.2649 19.0132 58.8514 18.853 59.3591 18.5361C59.8667 18.2192 60.2737 17.7591 60.531 17.2112Z" fill="#606060"/>
<path d="M65.3491 15.8909C65.3429 15.0933 65.493 14.3026 65.7904 13.5652C66.0878 12.8277 66.5266 12.1585 67.0809 11.5967C67.6353 11.0349 68.294 10.5919 69.0183 10.2939C69.7427 9.99579 70.5181 9.8486 71.299 9.86095C72.3689 9.86058 73.4222 10.1313 74.3645 10.6487V9.99966H77.3613V21.1758C77.3613 24.2584 74.7502 25.9298 71.4818 25.9298C69.347 25.9298 67.3028 25.2808 65.9628 24.2173L67.2122 22.0149C68.4855 22.8483 69.9695 23.2835 71.4818 23.2668C73.5931 23.2668 74.2522 22.4105 74.3427 21.0182C73.4332 21.6121 72.3785 21.9331 71.299 21.9447C67.8243 21.9413 65.3491 19.2988 65.3491 15.8909ZM74.3645 17.2112V14.5688C74.1107 14.0175 73.7095 13.5508 73.2072 13.2223C72.7049 12.8939 72.1219 12.7171 71.5254 12.7124C71.1135 12.7083 70.7049 12.7874 70.323 12.9451C69.9411 13.1029 69.5936 13.3362 69.3003 13.6315C69.007 13.9269 68.7737 14.2786 68.614 14.6663C68.4542 15.054 68.3711 15.4702 68.3693 15.8909C68.3693 17.7216 69.731 18.9974 71.5036 18.9974C72.0983 19.013 72.6848 18.8527 73.1924 18.5358C73.7 18.2189 74.107 17.7589 74.3645 17.2112Z" fill="#606060"/>
<path d="M81.765 9.99963L84.8087 17.9065L87.9414 9.99963H91.1276L84.4448 26H81.6074L83.2844 21.7341L78.406 9.99963H81.765Z" fill="#606060"/>
<path d="M90.5491 9.99963H93.7958L96.754 18.0007L99.6837 9.99963H102.87L98.2146 21.8488H95.1608L90.5491 9.99963Z" fill="#606060"/>
<path d="M103.085 15.8429C103.085 12.5051 105.422 9.74451 109.078 9.74451C112.462 9.74451 115.033 12.3425 115.095 15.7556C115.119 16.0491 115.119 16.344 115.095 16.6375H105.946C106.036 18.3073 107.602 19.3965 109.283 19.3965C110.668 19.3965 111.485 19.0026 112.439 18.1977L114.097 19.9839C112.756 21.4207 111.414 22.0937 109.283 22.0937C105.355 22.0817 103.085 19.0899 103.085 15.8429ZM106.103 14.4283H111.963C111.667 13.3169 110.621 12.3425 109.033 12.3425C107.193 12.3425 106.422 13.2929 106.103 14.4283Z" fill="#606060"/>
<path d="M115.729 20.5747L117.213 18.1155C118.545 19.0222 120.107 19.5137 121.708 19.5301C123.23 19.5301 124.002 19.1362 124.002 18.4649C124.002 18.023 123.638 17.6994 122.866 17.5367L119.68 16.8414C117.342 16.3276 116.274 15.1956 116.274 13.3409C116.274 11.3698 117.909 9.72229 121.293 9.72229C123.336 9.72229 125.15 10.3268 126.401 11.1146L125.016 13.4796C123.995 12.9231 122.633 12.3202 121.201 12.3202C119.908 12.3202 119.158 12.6456 119.158 13.2467C119.158 13.6423 119.432 13.8975 120.18 14.0362L122.863 14.55C125.769 15.1288 126.888 16.4509 126.888 18.2371C126.888 20.8059 124.372 22.1554 121.619 22.1554C119.55 22.1963 117.511 21.649 115.729 20.5747Z" fill="#606060"/>
<path d="M127.491 9.99962H129.217V6.73035L132.236 4.73694V9.99962H134.006V12.69H132.237V21.8505H129.219V12.69H127.49V9.99962H127.491Z" fill="#606060"/>
<path d="M25.2801 11.9058C25.2297 11.1536 25.109 10.4081 24.9195 9.67944C24.0559 6.42559 22.2363 3.86532 19.4626 2.03802C17.7155 0.877684 15.7087 0.188879 13.63 0.0360474C12.7567 -0.0290934 11.8792 -0.00499807 11.0106 0.107975C10.0955 0.231665 9.19598 0.454997 8.32742 0.774158C6.01453 1.62615 3.99594 3.14993 2.51993 5.15806C1.04391 7.1662 0.174848 9.57112 0.0196281 12.077C-0.00888062 12.5377 -0.00888062 13.0018 -0.00888062 13.4642V24.7054C-0.00888062 24.9974 0.104726 25.2775 0.306947 25.484C0.509167 25.6905 0.783438 25.8066 1.06942 25.8066H5.32226C5.5884 25.8049 5.84469 25.7035 6.04252 25.5217C6.24035 25.3399 6.36596 25.0902 6.39553 24.8201C6.42351 24.7146 6.43817 24.6058 6.43913 24.4965V24.2362C6.43662 24.2163 6.43662 24.1961 6.43913 24.1762V24.1471C6.46814 24.155 6.49544 24.1683 6.51963 24.1865C8.11038 25.0848 9.87213 25.6222 11.6847 25.762C12.4108 25.8169 13.14 25.8094 13.8648 25.7398C15.5711 25.5793 17.2271 25.0638 18.7309 24.225C20.2347 23.3862 21.5543 22.2418 22.6086 20.8624C24.1114 18.9319 25.031 16.5962 25.2549 14.1406C25.3308 13.3981 25.3392 12.6499 25.2801 11.9058ZM14.9163 19.0882C14.9088 19.1278 14.8879 19.1634 14.8572 19.1888C14.8265 19.2142 14.7881 19.2277 14.7486 19.2269H10.5561C10.5167 19.2277 10.4782 19.2142 10.4475 19.1888C10.4169 19.1634 10.3959 19.1278 10.3884 19.0882V19.0608V18.9015C10.3875 18.705 10.4089 18.5091 10.4522 18.3176C10.479 18.2525 10.4958 18.1754 10.5226 18.1035C10.5494 18.0316 10.5763 17.9648 10.6031 17.8946C10.6299 17.8243 10.6735 17.761 10.7104 17.701L10.7708 17.6086C10.8102 17.5487 10.8533 17.4915 10.8999 17.4373C10.9485 17.3757 10.9972 17.3226 11.0458 17.2661C11.2981 17.0127 11.6047 16.8227 11.9413 16.7112C11.6513 16.5499 11.4221 16.2948 11.2898 15.9858C11.1575 15.6769 11.1296 15.3318 11.2105 15.0049C11.2914 14.678 11.4765 14.3879 11.7366 14.1803C11.9968 13.9726 12.3172 13.8593 12.6473 13.8581C13.0415 13.8611 13.4189 14.0215 13.6988 14.305C13.8608 14.4716 13.9828 14.6742 14.0551 14.897C14.1275 15.1198 14.1482 15.3567 14.1157 15.5891C14.0832 15.8215 13.9983 16.043 13.8678 16.2362C13.7373 16.4295 13.5646 16.5891 13.3634 16.7026C13.8163 16.8551 14.2103 17.1498 14.4892 17.5448C14.7681 17.9397 14.9176 18.4146 14.9163 18.9015C14.9163 18.9632 14.9163 19.03 14.9163 19.0882ZM22.1441 9.76164H3.16733C3.13176 9.7614 3.09676 9.75253 3.06519 9.73577C3.03363 9.71901 3.00642 9.69484 2.98579 9.66525C2.96516 9.63566 2.95171 9.60148 2.94653 9.56555C2.94136 9.52961 2.94461 9.49293 2.95603 9.45852C3.66412 7.40928 4.9772 5.63477 6.71428 4.3796C8.45137 3.12443 10.5269 2.45039 12.6549 2.45039C14.7828 2.45039 16.8584 3.12443 18.5955 4.3796C20.3326 5.63477 21.6456 7.40928 22.3537 9.45852C22.3651 9.49279 22.3684 9.52932 22.3633 9.56513C22.3582 9.60094 22.3449 9.63501 22.3245 9.66457C22.304 9.69412 22.277 9.71832 22.2457 9.73519C22.2143 9.75206 22.1795 9.76113 22.1441 9.76164Z" fill="#606060"/>
</g>
<defs>
<clipPath id="clip0_1_89">
<rect width="134" height="26" fill="white"/>
</clipPath>
</defs>
</svg>
